<svg width="88" height="80" viewBox="0 0 88 80" fill="none" xmlns="http://www.w3.org/2000/svg">
<path fill-rule="evenodd" clip-rule="evenodd" d="M82.3162 34.4035H19.2321L43.9465 9.69678C46.1531 7.48368 46.1531 3.87291 43.9465 1.65982C41.7333 -0.553273 38.1155 -0.553273 35.9089 1.65982L1.65164 35.9071C0.534964 37.0304 -0.00660414 38.5145 0.0133868 39.9992C0.0133868 40.0326 0 40.0594 0 40.0862V40.0929C0 40.133 0.0267735 40.1793 0.0267735 40.2262C0.046853 40.9217 0.174021 41.6105 0.441199 42.2658C0.608537 42.6601 0.895792 42.9814 1.15013 43.3355C1.33085 43.5826 1.43069 43.8771 1.65158 44.0979L35.9088 78.3452C38.1154 80.5516 41.7332 80.5516 43.9465 78.3452C46.153 76.1316 46.153 72.5146 43.9465 70.3083L19.4062 45.77H82.3162C85.4453 45.77 88 43.2089 88 40.0934C88 36.9639 85.4454 34.4035 82.3162 34.4035Z" fill="white"/>
</svg>
