<svg width="654" height="654" viewBox="0 0 654 654" fill="none" xmlns="http://www.w3.org/2000/svg">
<path d="M326.664 0C293.56 0 266.919 26.64 266.919 59.7453V266.919H59.7453C26.6413 266.919 0 293.559 0 326.664C0 359.769 26.64 386.456 59.7453 386.456H266.919V593.589C266.919 626.693 293.559 653.335 326.664 653.335C359.769 653.335 386.456 626.695 386.456 593.589V386.456H593.589C626.693 386.456 653.335 359.768 653.335 326.664C653.335 293.56 626.695 266.919 593.589 266.919H386.456V59.7453C386.456 26.6413 359.768 0 326.664 0V0Z" fill="rgb(65, 65, 65)"/>
</svg>
