<svg width="741" height="512" viewBox="0 0 741 512" fill="none" xmlns="http://www.w3.org/2000/svg">
<g clip-path="url(#clip0_4_3)">
<path d="M733.857 193.675H733.657L618.857 242.695L461.787 309.765C461.173 310.023 460.515 310.158 459.849 310.161C459.183 310.165 458.523 310.037 457.907 309.785L295.857 242.555L178.237 193.755L178.057 193.675H177.857C176.001 193.677 174.222 194.415 172.909 195.727C171.597 197.04 170.859 198.819 170.857 200.675V504.675C170.859 506.531 171.597 508.31 172.909 509.622C174.222 510.935 176.001 511.673 177.857 511.675H733.857C735.713 511.673 737.492 510.935 738.804 509.622C740.117 508.31 740.855 506.531 740.857 504.675V200.675C740.855 198.819 740.117 197.04 738.804 195.727C737.492 194.415 735.713 193.677 733.857 193.675V193.675Z" fill="white"/>
<path d="M735.856 195.675C735.652 195.675 735.453 195.612 735.285 195.496L458.726 2.89209C457.885 2.30869 456.885 1.99691 455.861 1.99866C454.837 2.00041 453.838 2.31559 452.998 2.90186L178.431 195.494C178.324 195.569 178.202 195.623 178.074 195.651C177.946 195.68 177.813 195.683 177.684 195.66C177.555 195.637 177.431 195.589 177.32 195.519C177.209 195.448 177.113 195.357 177.038 195.249C176.963 195.142 176.909 195.02 176.881 194.892C176.852 194.764 176.849 194.631 176.872 194.502C176.894 194.373 176.942 194.249 177.013 194.138C177.083 194.027 177.175 193.931 177.282 193.856L451.849 1.26416C453.025 0.443512 454.424 0.00237325 455.857 1.7117e-05C457.291 -0.00233902 458.691 0.434197 459.869 1.25098L736.428 193.854C736.603 193.976 736.734 194.15 736.803 194.352C736.872 194.553 736.875 194.771 736.811 194.974C736.747 195.178 736.62 195.355 736.448 195.481C736.276 195.607 736.069 195.675 735.856 195.675L735.856 195.675Z" fill="#3F3D56"/>
<path d="M194.121 202.502L456.132 8.319L720.132 216.319L469.632 364.819L333.632 333.819L194.121 202.502Z" fill="#E6E6E6"/>
<path d="M345.112 456.541H215.672C214.877 456.542 214.09 456.386 213.355 456.083C212.621 455.78 211.953 455.334 211.391 454.773C210.828 454.211 210.382 453.544 210.078 452.81C209.774 452.076 209.617 451.289 209.617 450.494C209.617 449.699 209.774 448.912 210.078 448.178C210.382 447.443 210.828 446.777 211.391 446.215C211.953 445.653 212.621 445.208 213.355 444.904C214.09 444.601 214.877 444.445 215.672 444.446H345.112C345.907 444.445 346.694 444.601 347.429 444.904C348.164 445.208 348.831 445.653 349.393 446.215C349.956 446.777 350.402 447.443 350.706 448.178C351.011 448.912 351.167 449.699 351.167 450.494C351.167 451.289 351.011 452.076 350.706 452.81C350.402 453.544 349.956 454.211 349.393 454.773C348.831 455.334 348.164 455.78 347.429 456.083C346.694 456.386 345.907 456.542 345.112 456.541V456.541Z" fill="#6938D3"/>
<path d="M262.112 430.541H215.672C214.877 430.542 214.09 430.386 213.355 430.083C212.621 429.78 211.953 429.334 211.391 428.773C210.828 428.211 210.382 427.544 210.078 426.81C209.774 426.076 209.617 425.289 209.617 424.494C209.617 423.699 209.774 422.912 210.078 422.178C210.382 421.443 210.828 420.777 211.391 420.215C211.953 419.653 212.621 419.208 213.355 418.904C214.09 418.601 214.877 418.445 215.672 418.446H262.112C262.907 418.445 263.694 418.601 264.429 418.904C265.164 419.208 265.831 419.653 266.393 420.215C266.956 420.777 267.402 421.443 267.706 422.178C268.011 422.912 268.167 423.699 268.167 424.494C268.167 425.289 268.011 426.076 267.706 426.81C267.402 427.544 266.956 428.211 266.393 428.773C265.831 429.334 265.164 429.78 264.429 430.083C263.694 430.386 262.907 430.542 262.112 430.541Z" fill="#6938D3"/>
<path d="M459.817 310.66C458.833 310.661 457.859 310.47 456.948 310.097L295.357 243.049V33.1746C295.359 31.3188 296.097 29.5396 297.41 28.2273C298.722 26.915 300.501 26.1768 302.357 26.1746H612.357C614.213 26.1768 615.992 26.915 617.304 28.2273C618.617 29.5396 619.355 31.3188 619.357 33.1746V243.195L619.053 243.325L462.773 310.065C461.837 310.458 460.832 310.66 459.817 310.66V310.66Z" fill="white"/>
<path d="M459.817 311.159C458.768 311.16 457.729 310.957 456.757 310.56L294.857 243.383V33.1746C294.859 31.1862 295.65 29.2798 297.056 27.8738C298.462 26.4678 300.369 25.6769 302.357 25.6746H612.357C614.345 25.6769 616.252 26.4678 617.658 27.8738C619.064 29.2798 619.855 31.1862 619.857 33.1746V243.525L462.969 310.524C461.971 310.944 460.9 311.16 459.817 311.159V311.159ZM296.857 242.047L457.52 308.711C459.019 309.319 460.697 309.309 462.188 308.683L617.857 242.205V33.1746C617.855 31.7165 617.275 30.3185 616.244 29.2874C615.213 28.2564 613.815 27.6763 612.357 27.6746H302.357C300.899 27.6763 299.501 28.2564 298.47 29.2874C297.439 30.3185 296.859 31.7165 296.857 33.1746V242.047Z" fill="#3F3D56"/>
<path d="M733.857 193.675H733.657L618.857 242.695L461.787 309.765C461.173 310.023 460.515 310.158 459.849 310.161C459.183 310.165 458.523 310.037 457.907 309.785L295.857 242.555L178.237 193.755L178.057 193.675H177.857C176.001 193.677 174.222 194.415 172.909 195.727C171.597 197.04 170.859 198.819 170.857 200.675V504.675C170.859 506.531 171.597 508.31 172.909 509.622C174.222 510.935 176.001 511.673 177.857 511.675H733.857C735.713 511.673 737.492 510.935 738.804 509.622C740.117 508.31 740.855 506.531 740.857 504.675V200.675C740.855 198.819 740.117 197.04 738.804 195.727C737.492 194.415 735.713 193.677 733.857 193.675V193.675ZM738.857 504.675C738.856 506.001 738.329 507.272 737.392 508.21C736.454 509.147 735.183 509.674 733.857 509.675H177.857C176.531 509.674 175.259 509.147 174.322 508.21C173.384 507.272 172.857 506.001 172.857 504.675V200.675C172.859 199.382 173.36 198.14 174.257 197.208C175.153 196.276 176.375 195.727 177.667 195.675L295.857 244.715L457.137 311.635C458.883 312.345 460.839 312.334 462.577 311.605L618.857 244.865L734.057 195.675C735.347 195.731 736.565 196.281 737.459 197.213C738.353 198.144 738.854 199.384 738.857 200.675V504.675Z" fill="#3F3D56"/>
<path d="M434.66 104.626H324.66C322.538 104.626 320.503 103.783 319.003 102.283C317.503 100.783 316.66 98.748 316.66 96.6262C316.66 94.5045 317.503 92.4697 319.003 90.9694C320.503 89.4691 322.538 88.6262 324.66 88.6262H434.66C436.782 88.6262 438.817 89.4691 440.317 90.9694C441.817 92.4697 442.66 94.5045 442.66 96.6262C442.66 98.748 441.817 100.783 440.317 102.283C438.817 103.783 436.782 104.626 434.66 104.626Z" fill="#6938D3"/>
<path d="M377.66 70.6262H324.66C322.538 70.6262 320.503 69.7834 319.003 68.2831C317.503 66.7828 316.66 64.748 316.66 62.6262C316.66 60.5045 317.503 58.4697 319.003 56.9694C320.503 55.4691 322.538 54.6262 324.66 54.6262H377.66C379.782 54.6262 381.817 55.4691 383.317 56.9694C384.817 58.4697 385.66 60.5045 385.66 62.6262C385.66 64.748 384.817 66.7828 383.317 68.2831C381.817 69.7834 379.782 70.6262 377.66 70.6262Z" fill="#6938D3"/>
<path d="M539.629 184.626H371.629C369.507 184.626 367.472 183.783 365.972 182.283C364.471 180.783 363.629 178.748 363.629 176.626C363.629 174.505 364.471 172.47 365.972 170.969C367.472 169.469 369.507 168.626 371.629 168.626H539.629C541.75 168.626 543.785 169.469 545.285 170.969C546.786 172.47 547.629 174.505 547.629 176.626C547.629 178.748 546.786 180.783 545.285 182.283C543.785 183.783 541.75 184.626 539.629 184.626Z" fill="#CCCCCC"/>
<path d="M539.629 221.626H371.629C369.507 221.626 367.472 220.783 365.972 219.283C364.471 217.783 363.629 215.748 363.629 213.626C363.629 211.504 364.471 209.47 365.972 207.969C367.472 206.469 369.507 205.626 371.629 205.626H539.629C541.75 205.626 543.785 206.469 545.285 207.969C546.786 209.47 547.629 211.504 547.629 213.626C547.629 215.748 546.786 217.783 545.285 219.283C543.785 220.783 541.75 221.626 539.629 221.626Z" fill="#CCCCCC"/>
<path d="M40.948 230.978C39.9086 230.977 38.9018 230.616 38.0979 229.957C37.2941 229.298 36.7426 228.382 36.5369 227.363L32.8982 209.224C30.9684 199.602 32.9399 189.608 38.3788 181.44C43.8176 173.272 52.2784 167.599 61.8999 165.67C71.5214 163.74 81.5154 165.711 89.6833 171.15C97.8513 176.589 103.524 185.05 105.454 194.671L109.092 212.81C109.325 213.98 109.085 215.195 108.424 216.188C107.763 217.181 106.735 217.871 105.565 218.107L41.8347 230.89C41.5428 230.949 41.2458 230.978 40.948 230.978Z" fill="#6C6C70"/>
<path d="M154.088 501.059L142.656 501.058L137.22 456.962L154.092 456.963L154.088 501.059Z" fill="#D7949E"/>
<path d="M134.49 497.791H156.538V511.673H120.608C120.608 507.991 122.071 504.461 124.674 501.857C127.277 499.254 130.808 497.791 134.49 497.791Z" fill="#6C6C70"/>
<path d="M34.969 500.944L24.442 496.486L36.63 453.76L52.166 460.341L34.969 500.944Z" fill="#D7949E"/>
<path d="M18.1967 490.293L38.4986 498.892L33.0846 511.675L-2.85647e-05 497.662C0.710946 495.983 1.74559 494.461 3.04484 493.183C4.34409 491.904 5.88249 490.893 7.57222 490.209C9.26194 489.525 11.0699 489.18 12.8928 489.195C14.7158 489.209 16.518 489.582 18.1967 490.293V490.293Z" fill="#6C6C70"/>
<path d="M70.2236 226.433C83.7883 226.433 94.7846 215.437 94.7846 201.872C94.7846 188.307 83.7883 177.311 70.2236 177.311C56.6589 177.311 45.6626 188.307 45.6626 201.872C45.6626 215.437 56.6589 226.433 70.2236 226.433Z" fill="#D7949E"/>
<path d="M71.3861 313.604L71.1341 312.785C64.4415 291.031 57.5238 268.545 50.5963 247.16L50.4088 246.583L50.8346 246.15C61.5875 235.211 81.7318 230.848 97.6932 236.004C113.757 241.189 124.827 255.735 123.443 269.838C122.707 278.311 124.984 286.772 129.871 293.731L130.512 294.661L129.51 295.185C111.566 304.419 92.209 310.602 72.234 313.48L71.3861 313.604Z" fill="#3F3D56"/>
<path d="M41.7643 493.021C40.8885 493.019 40.0285 492.787 39.2709 492.348L26.0036 484.686C24.9152 484.065 24.1015 483.055 23.725 481.86C23.3486 480.665 23.4373 479.372 23.9733 478.239L53.454 408.287L75.9847 306.263L117.046 291.332L117.419 291.504C161.441 311.726 158.038 456.669 156.908 485.52C156.858 486.733 156.367 487.887 155.528 488.766C154.69 489.645 153.56 490.189 152.35 490.296L140.003 491.909C138.747 492.02 137.496 491.656 136.495 490.891C135.494 490.125 134.816 489.013 134.594 487.772L109.387 375.118C109.361 374.904 109.267 374.704 109.119 374.548C108.971 374.391 108.776 374.287 108.564 374.25C108.361 374.211 108.15 374.237 107.963 374.326C107.775 374.414 107.621 374.56 107.522 374.742L46.1366 490.457C45.8133 491.038 45.3768 491.548 44.8531 491.958C44.3293 492.367 43.7288 492.668 43.0871 492.842C42.656 492.96 42.2112 493.02 41.7643 493.021V493.021Z" fill="#6C6C70"/>
<path d="M56.5112 390.214C57.2865 389.084 57.8045 387.797 58.0287 386.444C58.2529 385.092 58.1779 383.707 57.8089 382.387C57.4399 381.066 56.7859 379.843 55.893 378.803C55.0001 377.763 53.8899 376.931 52.6408 376.366L53.3123 354.949L40.3964 351.366L39.873 381.625C39.0634 383.787 39.0747 386.17 39.9049 388.323C40.735 390.477 42.3263 392.251 44.3772 393.31C46.428 394.369 48.796 394.638 51.0324 394.068C53.2688 393.497 55.2181 392.126 56.5111 390.214H56.5112Z" fill="#D7949E"/>
<path d="M40.0641 367.575L39.306 367.571C38.0567 367.563 36.8563 367.084 35.9439 366.231C35.0316 365.377 34.4743 364.211 34.383 362.965C33.1442 347.014 29.34 292.679 32.4037 263.22C32.8096 260.471 33.7632 257.832 35.208 255.458C36.6527 253.084 38.5593 251.024 40.8146 249.401C43.07 247.778 45.6282 246.623 48.3378 246.007C51.0475 245.39 53.8533 245.324 56.589 245.812L57.3776 245.986L57.3717 246.794C57.091 285.552 57.109 324.084 57.1266 361.348C57.1294 362.485 56.7439 363.59 56.0338 364.479C55.3237 365.368 54.3316 365.988 53.2213 366.237C48.893 367.133 44.4841 367.581 40.0641 367.575Z" fill="#C0B5D9"/>
<path d="M69.4664 414.059C66.1601 414.044 62.9726 412.825 60.5015 410.628C58.0303 408.431 56.4453 405.409 56.0435 402.127L57.1312 312.676L39.3522 267.706C38.604 261.798 39.8747 255.811 42.958 250.717C46.0413 245.622 50.756 241.72 56.3368 239.643L61.0897 237.86C61.9879 237.523 62.9436 237.367 63.9022 237.401C64.8608 237.434 65.8033 237.657 66.6757 238.055C67.5481 238.454 68.3332 239.021 68.9859 239.724C69.6387 240.427 70.1462 241.251 70.4794 242.151L88.8122 291.648L88.8168 291.721C90.088 311.421 95.8253 409.47 84.3861 412.395C79.539 413.53 74.5746 414.088 69.5963 414.058L69.4664 414.059Z" fill="#C0B5D9"/>
<path d="M175.083 356.443C173.813 355.928 172.671 355.14 171.738 354.136C170.805 353.131 170.103 351.935 169.683 350.63C169.262 349.325 169.133 347.944 169.304 346.584C169.475 345.224 169.942 343.918 170.673 342.758L158.298 325.264L167.095 315.151L184.223 340.101C186.091 341.457 187.396 343.451 187.891 345.706C188.387 347.96 188.038 350.317 186.912 352.332C185.785 354.346 183.959 355.877 181.779 356.635C179.599 357.393 177.216 357.324 175.083 356.443H175.083Z" fill="#D7949E"/>
<path d="M162.726 333.961C162.08 333.941 161.448 333.767 160.883 333.453C160.318 333.138 159.837 332.692 159.48 332.153L159.415 332.055C138.94 301.064 117.768 269.019 96.3101 237.074L96.079 236.73L96.3743 236.439C98.2565 234.682 100.474 233.324 102.895 232.446C105.315 231.569 107.888 231.189 110.459 231.331C113.105 231.38 115.712 231.986 118.108 233.11C120.504 234.234 122.637 235.851 124.366 237.855C143.117 260.67 169.879 308.024 177.634 321.995C178.124 322.862 178.269 323.882 178.04 324.852C177.812 325.821 177.226 326.669 176.401 327.226C172.593 329.819 168.513 331.989 164.235 333.698C163.755 333.886 163.242 333.976 162.726 333.961Z" fill="#C0B5D9"/>
<path d="M155.852 394.122C143.588 394.13 99.7086 309.64 91.037 292.702L90.962 292.497L81.3692 240.669C81.1946 239.726 81.208 238.758 81.4086 237.82C81.6092 236.882 81.9931 235.993 82.5382 235.203C83.0833 234.414 83.7789 233.741 84.585 233.221C85.3912 232.701 86.2921 232.346 87.2359 232.175L92.232 231.272C98.0892 230.198 104.137 231.136 109.394 233.933C114.652 236.73 118.809 241.221 121.192 246.679L133.726 299.366L175.639 370.578C177.016 373.629 177.218 377.081 176.208 380.271C175.197 383.462 173.045 386.168 170.163 387.87C165.903 390.447 161.352 392.51 156.607 394.017C156.362 394.088 156.108 394.123 155.852 394.122H155.852Z" fill="#C0B5D9"/>
<path d="M89.2996 202.084H39.7996V196.084C39.807 189.456 42.4433 183.102 47.1301 178.415C51.8169 173.728 58.1714 171.092 64.7996 171.084H68.7996C75.4277 171.092 81.7822 173.728 86.469 178.415C91.1558 183.102 93.7921 189.456 93.7996 196.084V197.584C93.7983 198.777 93.3237 199.921 92.4801 200.765C91.6365 201.609 90.4926 202.083 89.2996 202.084V202.084Z" fill="#6C6C70"/>
</g>
<defs>
<clipPath id="clip0_4_3">
<rect width="740.857" height="511.675" fill="white"/>
</clipPath>
</defs>
</svg>
